<?xml version="1.0" encoding="UTF-8"?>
<!DOCTYPE svg PUBLIC "-//W3C//DTD SVG 1.1//EN" "http://www.w3.org/Graphics/SVG/1.1/DTD/svg11.dtd">
<svg xmlns="http://www.w3.org/2000/svg" version="1.1" width="256px" height="256px" style="shape-rendering:geometricPrecision; text-rendering:geometricPrecision; image-rendering:optimizeQuality; fill-rule:evenodd; clip-rule:evenodd" xmlns:xlink="http://www.w3.org/1999/xlink">
<g><path style="opacity:0.984" fill="#1a4866" d="M 113.5,8.5 C 171.975,5.44543 213.808,30.1121 239,82.5C 256.504,132.64 247.004,177.14 210.5,216C 171.796,248.762 128.796,256.429 81.5,239C 39.4848,219.815 15.3182,187.315 9,141.5C 5.7045,91.2601 24.8712,52.4267 66.5,25C 81.385,16.8745 97.0517,11.3745 113.5,8.5 Z"/></g>
<g><path style="opacity:1" fill="#f3f5f4" d="M 75.5,37.5 C 88.9802,36.1514 95.4802,42.1514 95,55.5C 94.3333,56.8333 93.6667,58.1667 93,59.5C 83.3039,69.5303 73.3039,79.197 63,88.5C 59.1291,94.4407 59.9624,99.6073 65.5,104C 68.5,104.667 71.5,104.667 74.5,104C 84.1902,95.3088 93.5235,86.3088 102.5,77C 103.167,76.3333 103.833,76.3333 104.5,77C 100.791,82.0439 97.958,87.5439 96,93.5C 91.1667,98.3333 86.3333,103.167 81.5,108C 69.7463,114.669 60.5797,112.169 54,100.5C 52.7762,94.6956 53.7762,89.3622 57,84.5C 67.3039,75.197 77.3039,65.5303 87,55.5C 88.9546,47.2087 85.788,43.7087 77.5,45C 62.5,59.3333 47.5,73.6667 32.5,88C 29.4473,89.0723 27.4473,88.0723 26.5,85C 32.1218,78.3763 38.1218,72.043 44.5,66C 54.7294,56.2657 65.0627,46.7657 75.5,37.5 Z"/></g>
<g><path style="opacity:1" fill="#f9faf9" d="M 145.5,56.5 C 176.047,54.847 196.88,68.1803 208,96.5C 214.605,128.123 203.438,150.956 174.5,165C 153.16,172.167 133.827,168.667 116.5,154.5C 112.515,157.984 108.682,161.651 105,165.5C 104.667,168.5 104.333,171.5 104,174.5C 93.8874,184.613 83.7208,194.779 73.5,205C 70.2976,206.483 66.9643,206.817 63.5,206C 59.9636,202.799 56.7969,199.299 54,195.5C 53.245,192.697 53.5783,190.03 55,187.5C 65.4706,178.03 75.6372,168.197 85.5,158C 89.0458,156.826 92.7125,156.16 96.5,156C 100,152.5 103.5,149 107,145.5C 104.739,138.942 102.406,132.276 100,125.5C 95.7297,89.6154 110.896,66.6154 145.5,56.5 Z"/></g>
<g><path style="opacity:1" fill="#f2f4f3" d="M 103.5,60.5 C 106.425,60.4598 109.091,61.2932 111.5,63C 113.211,64.1332 113.711,65.6332 113,67.5C 111.667,68.8333 110.333,70.1667 109,71.5C 107.475,68.9133 105.308,68.0799 102.5,69C 92.8039,79.0303 82.8039,88.697 72.5,98C 68.4943,98.9874 66.661,97.4874 67,93.5C 78.6157,81.6559 90.7824,70.6559 103.5,60.5 Z"/></g>
<g><path style="opacity:1" fill="#1d4966" d="M 147.5,69.5 C 166.841,67.9877 181.674,75.321 192,91.5C 202.319,115.196 197.153,134.696 176.5,150C 151.078,161.661 130.911,155.827 116,132.5C 107.173,111.293 111.34,93.1262 128.5,78C 134.453,74.0811 140.786,71.2477 147.5,69.5 Z"/></g>
<g><path style="opacity:1" fill="#f1f2f2" d="M 130.5,93.5 C 132.5,93.5 134.5,93.5 136.5,93.5C 136.5,95.1667 136.5,96.8333 136.5,98.5C 135.178,98.33 134.011,98.6634 133,99.5C 132.667,103.5 132.333,107.5 132,111.5C 130.954,113.09 129.787,114.59 128.5,116C 130.049,117.214 131.215,118.714 132,120.5C 132.173,124.541 132.673,128.541 133.5,132.5C 134.736,133.246 136.07,133.579 137.5,133.5C 138.17,136.59 137.003,138.257 134,138.5C 131.077,138.205 128.743,136.871 127,134.5C 126.667,129.833 126.333,125.167 126,120.5C 123.198,118.609 122.032,115.942 122.5,112.5C 123.822,112.67 124.989,112.337 126,111.5C 126.333,106.833 126.667,102.167 127,97.5C 127.69,95.6498 128.856,94.3164 130.5,93.5 Z"/></g>
<g><path style="opacity:1" fill="#f2f3f2" d="M 174.5,93.5 C 178.192,92.9712 181.358,93.9712 184,96.5C 184.338,101.547 185.005,106.547 186,111.5C 187.834,112.495 189.001,113.995 189.5,116C 187.619,118.227 186.119,120.727 185,123.5C 184.667,127.167 184.333,130.833 184,134.5C 181.761,137.962 178.594,139.295 174.5,138.5C 173.599,134.759 174.932,132.759 178.5,132.5C 178.378,127.768 178.878,123.102 180,118.5C 180.903,117.299 182.069,116.465 183.5,116C 181.19,114.363 179.69,112.196 179,109.5C 178.501,105.848 178.335,102.182 178.5,98.5C 177.167,98.5 175.833,98.5 174.5,98.5C 174.5,96.8333 174.5,95.1667 174.5,93.5 Z"/></g>
<g><path style="opacity:1" fill="#f7f8f7" d="M 151.5,101.5 C 154.5,101.5 157.5,101.5 160.5,101.5C 160.5,104.167 160.5,106.833 160.5,109.5C 157.5,109.5 154.5,109.5 151.5,109.5C 151.5,106.833 151.5,104.167 151.5,101.5 Z"/></g>
<g><path style="opacity:1" fill="#f4f6f5" d="M 91.5,106.5 C 92.4614,108.265 92.7947,110.265 92.5,112.5C 92.6567,113.873 92.49,115.207 92,116.5C 88.4184,118.839 85.9184,122.005 84.5,126C 84.7029,128.406 85.7029,130.406 87.5,132C 90.4679,132.17 93.3012,132.336 96,132.5C 97.4961,134.45 97.6627,136.45 96.5,138.5C 82.9016,141.072 76.735,135.405 78,121.5C 81.654,115.682 86.154,110.682 91.5,106.5 Z"/></g>
<g><path style="opacity:1" fill="#878f97" d="M 91.5,106.5 C 91.56,105.957 91.8933,105.624 92.5,105.5C 93.7969,107.973 93.7969,110.307 92.5,112.5C 92.7947,110.265 92.4614,108.265 91.5,106.5 Z"/></g>
<g><path style="opacity:1" fill="#f8f9f8" d="M 151.5,121.5 C 154.167,121.5 156.833,121.5 159.5,121.5C 159.5,124.5 159.5,127.5 159.5,130.5C 158.666,135.004 156,137.337 151.5,137.5C 151.98,134.995 152.98,132.662 154.5,130.5C 153.675,129.614 152.675,129.281 151.5,129.5C 151.5,126.833 151.5,124.167 151.5,121.5 Z"/></g>
<g><path style="opacity:1" fill="#b4b7b9" d="M 151.5,121.5 C 154.287,120.523 157.287,120.19 160.5,120.5C 160.813,124.042 160.479,127.375 159.5,130.5C 159.5,127.5 159.5,124.5 159.5,121.5C 156.833,121.5 154.167,121.5 151.5,121.5 Z"/></g>
<g><path style="opacity:1" fill="#f2f3f2" d="M 119.5,164.5 C 122.09,165.128 124.423,166.295 126.5,168C 121.192,172.429 121.192,176.763 126.5,181C 128.167,181.667 129.833,181.667 131.5,181C 134.393,177.604 137.726,174.771 141.5,172.5C 143.988,173.025 146.321,173.858 148.5,175C 143.977,178.767 139.643,182.767 135.5,187C 120.825,190.327 114.325,184.493 116,169.5C 116.997,167.677 118.164,166.01 119.5,164.5 Z"/></g>
<g><path style="opacity:1" fill="#f4f5f4" d="M 159.5,173.5 C 161.857,173.337 164.19,173.503 166.5,174C 159.985,180.348 153.652,186.848 147.5,193.5C 156.819,203.319 166.319,212.986 176,222.5C 177.583,227.1 176.083,228.934 171.5,228C 160.97,217.804 150.803,207.304 141,196.5C 140.21,193.366 140.543,190.366 142,187.5C 146.801,183.701 151.301,179.534 155.5,175C 157.058,174.79 158.391,174.29 159.5,173.5 Z"/></g>
</svg>
